<?xml version="1.0" encoding="UTF-8" standalone="no"?><svg xmlns="http://www.w3.org/2000/svg" xmlns:xlink="http://www.w3.org/1999/xlink" fill="#000000" height="18.8" preserveAspectRatio="xMidYMid meet" version="1" viewBox="0.0 0.0 441.9 18.8" width="441.9" zoomAndPan="magnify"><g id="change1_1"><path d="M432.5,0c-4.7,0-8.6,3.5-9.3,8H418H23h-4.2c-0.7-4.5-4.6-8-9.3-8C4.2,0,0,4.2,0,9.4c0,5.2,4.2,9.4,9.4,9.4 c4.7,0,8.6-3.5,9.3-8H23v0h395h5.2c0.7,4.5,4.6,8,9.3,8c5.2,0,9.4-4.2,9.4-9.4S437.7,0,432.5,0z M9.4,16.2c-3.7,0-6.7-3-6.7-6.7 c0-3.7,3-6.7,6.7-6.7c3.7,0,6.7,3,6.7,6.7C16.2,13.1,13.1,16.2,9.4,16.2z M432.5,16.2c-3.2,0-6-2.3-6.6-5.4h0V8h0 c0.6-3.1,3.4-5.4,6.6-5.4c3.7,0,6.7,3,6.7,6.7C439.2,13.1,436.2,16.2,432.5,16.2z" fill="#ffffff"/></g></svg>